<svg width="280" height="280" viewBox="0 0 280 280" fill="none" xmlns="http://www.w3.org/2000/svg">
  <defs>
    <linearGradient id="sb_bg" x1="36" y1="32" x2="234" y2="244" gradientUnits="userSpaceOnUse">
      <stop stop-color="#34D399"/>
      <stop offset="0.58" stop-color="#22C55E"/>
      <stop offset="1" stop-color="#166534"/>
    </linearGradient>
    <linearGradient id="sb_handle" x1="168" y1="84" x2="95" y2="190" gradientUnits="userSpaceOnUse">
      <stop stop-color="#F8FAFC"/>
      <stop offset="1" stop-color="#DCFCE7"/>
    </linearGradient>
    <linearGradient id="sb_brush" x1="82" y1="162" x2="117" y2="229" gradientUnits="userSpaceOnUse">
      <stop stop-color="#FCD34D"/>
      <stop offset="1" stop-color="#F59E0B"/>
    </linearGradient>
  </defs>

  <rect x="20" y="20" width="240" height="240" rx="64" fill="url(#sb_bg)"/>

  <circle cx="205" cy="76" r="22" fill="rgba(255,255,255,0.14)"/>
  <path d="M205 58V94" stroke="#ECFDF5" stroke-width="6" stroke-linecap="round"/>
  <path d="M187 76H223" stroke="#ECFDF5" stroke-width="6" stroke-linecap="round"/>

  <path
    d="M170.653 58.6025C178.102 66.3209 184.089 75.4415 188.271 85.5039C192.454 95.5663 194.749 106.39 195.027 117.339C184.256 116.277 173.814 113.231 164.357 108.399C154.9 103.567 146.62 97.0417 140.023 89.0905C133.425 81.1393 128.643 71.9334 125.988 62.0608C123.333 52.1881 122.864 41.8778 124.614 31.8125C135.6 33.164 146.139 36.9615 155.58 42.9734C161.437 46.7028 166.593 51.2033 170.653 56.337V58.6025Z"
    fill="#BBF7D0"
    fill-opacity="0.9"
  />

  <path d="M182.5 74L105 179" stroke="url(#sb_handle)" stroke-width="14" stroke-linecap="round"/>

  <path
    d="M81.0601 166.6C88.7008 163.648 97.0066 162.839 105.073 164.258C113.139 165.676 120.65 169.267 126.78 174.642L115.412 229H59.0902L47 186.889C56.1414 178.236 67.8855 171.693 81.0601 166.6Z"
    fill="url(#sb_brush)"
  />

  <path d="M69 228.5L79.5 176.5" stroke="#FEF3C7" stroke-width="7" stroke-linecap="round"/>
  <path d="M87 228.5L93.5 172.5" stroke="#FEF3C7" stroke-width="7" stroke-linecap="round"/>
  <path d="M104.5 228.5L107.5 177.5" stroke="#FEF3C7" stroke-width="7" stroke-linecap="round"/>

  <path
    d="M135 194C147.667 205 166.6 209.1 187 205"
    stroke="#ECFDF5"
    stroke-width="8"
    stroke-linecap="round"
  />
  <path
    d="M188.5 205L176 192.5"
    stroke="#ECFDF5"
    stroke-width="8"
    stroke-linecap="round"
    stroke-linejoin="round"
  />
</svg>
