<svg width="360" height="260" viewBox="0 0 360 260" fill="none" xmlns="http://www.w3.org/2000/svg">
  <defs>
    <linearGradient id="truckBody" x1="0" y1="0" x2="1" y2="1">
      <stop offset="0%" stop-color="#2dd66f" />
      <stop offset="100%" stop-color="#0f9f4a" />
    </linearGradient>
    <linearGradient id="truckCab" x1="0" y1="0" x2="1" y2="1">
      <stop offset="0%" stop-color="#10b981" />
      <stop offset="100%" stop-color="#0f766e" />
    </linearGradient>
    <linearGradient id="personShirt" x1="0" y1="0" x2="1" y2="1">
      <stop offset="0%" stop-color="#22d3ee" />
      <stop offset="100%" stop-color="#0ea5e9" />
    </linearGradient>
  </defs>
  <rect x="28" y="24" width="304" height="212" rx="28" fill="#f7fce9" stroke="#e5f5cf" />
  <!-- ground line -->
  <path d="M40 200h280" stroke="#c6e9d2" stroke-width="8" stroke-linecap="round" />
  <!-- truck body -->
  <rect x="78" y="124" width="150" height="56" rx="14" fill="url(#truckBody)" />
  <rect x="228" y="102" width="70" height="78" rx="14" fill="url(#truckCab)" />
  <rect x="242" y="114" width="46" height="26" rx="8" fill="#e0f2fe" />
  <rect x="96" y="140" width="64" height="10" rx="5" fill="#ecfeff" opacity="0.8" />
  <rect x="96" y="158" width="92" height="10" rx="5" fill="#ecfeff" opacity="0.8" />
  <!-- wheels -->
  <circle cx="126" cy="194" r="18" fill="#0f172a" />
  <circle cx="126" cy="194" r="8" fill="#cbd5e1" />
  <circle cx="198" cy="194" r="18" fill="#0f172a" />
  <circle cx="198" cy="194" r="8" fill="#cbd5e1" />
  <circle cx="250" cy="194" r="18" fill="#0f172a" />
  <circle cx="250" cy="194" r="8" fill="#cbd5e1" />
  <!-- accents -->
  <path d="M88 118h88" stroke="#34d399" stroke-width="7" stroke-linecap="round" opacity="0.7" />
  <circle cx="182" cy="90" r="12" fill="#bbf7d0" opacity="0.7" />
  <circle cx="270" cy="88" r="10" fill="#a5f3fc" opacity="0.7" />
  <!-- person -->
  <circle cx="84" cy="128" r="12" fill="#f9d29d" />
  <path d="M74 142c3-6 10-9 20-9" stroke="#f59e0b" stroke-width="6" stroke-linecap="round" />
  <path d="M70 194c-2-20 8-44 24-44s26 24 24 44" fill="url(#personShirt)" />
  <path d="M80 194c0-10 4-18 10-18s10 8 10 18" stroke="#0ea5e9" stroke-width="6" stroke-linecap="round" />
  <path d="M82 196v18" stroke="#0f172a" stroke-width="6" stroke-linecap="round" />
  <path d="M104 196v18" stroke="#0f172a" stroke-width="6" stroke-linecap="round" />
  <path d="M76 214h18" stroke="#0f172a" stroke-width="6" stroke-linecap="round" />
  <path d="M98 214h18" stroke="#0f172a" stroke-width="6" stroke-linecap="round" />
</svg>
