<svg width="360" height="260" viewBox="0 0 360 260" fill="none" xmlns="http://www.w3.org/2000/svg">
  <defs>
    <linearGradient id="leaf" x1="0" x2="1" y1="0" y2="1">
      <stop offset="0%" stop-color="#34d399" />
      <stop offset="100%" stop-color="#16a34a" />
    </linearGradient>
    <linearGradient id="bgblob" x1="0" x2="1" y1="0" y2="1">
      <stop offset="0%" stop-color="#ecfdf3" />
      <stop offset="100%" stop-color="#e0f2fe" />
    </linearGradient>
  </defs>
  <g filter="url(#shadow)">
    <rect x="24" y="24" width="312" height="212" rx="32" fill="url(#bgblob)"/>
  </g>
  <path d="M118 188c-9-42 22-84 80-102" stroke="#16a34a" stroke-width="8" stroke-linecap="round" opacity="0.4"/>
  <circle cx="186" cy="116" r="64" fill="#ecfdf3" stroke="#bbf7d0" stroke-width="6"/>
  <path d="M170 78c18-14 42-14 54 2 12 16 7 40-11 54-6 5-15 10-25 14-15 6-29 8-38 5 0 0-2-18 5-36 4-10 9-20 15-26z" fill="url(#leaf)"/>
  <path d="M188 126c-8 8-16 16-24 26" stroke="#0f172a" stroke-linecap="round" stroke-width="4" opacity="0.2"/>
  <circle cx="146" cy="86" r="10" fill="#a5f3fc" opacity="0.8"/>
  <circle cx="232" cy="92" r="12" fill="#bbf7d0" opacity="0.7"/>
  <path d="M110 160c-10 0-18-8-18-18s8-18 18-18c4 0 8 2 11 4" stroke="#22c55e" stroke-width="6" stroke-linecap="round" opacity="0.6"/>
  <path d="M238 178c6 0 11 5 11 11s-5 11-11 11" stroke="#0ea5e9" stroke-width="6" stroke-linecap="round" opacity="0.5"/>
  <defs>
    <filter id="shadow" x="0" y="0" width="360" height="260" filterUnits="userSpaceOnUse" color-interpolation-filters="sRGB">
      <feOffset dy="8" />
      <feGaussianBlur stdDeviation="18" result="blur" />
      <feColorMatrix in="blur" type="matrix" values="0 0 0 0 0 0 0 0 0 0.14 0 0 0 0 0.09 0 0 0 0.18 0" />
      <feBlend in="SourceGraphic" />
    </filter>
  </defs>
</svg>
