<svg width="340" height="240" viewBox="0 0 340 240" fill="none" xmlns="http://www.w3.org/2000/svg">
  <defs>
    <linearGradient id="body" x1="0" x2="1" y1="0" y2="1">
      <stop offset="0%" stop-color="#34d399" />
      <stop offset="100%" stop-color="#16a34a" />
    </linearGradient>
    <linearGradient id="cab" x1="0" x2="1" y1="0" y2="1">
      <stop offset="0%" stop-color="#0ea5e9" />
      <stop offset="100%" stop-color="#0284c7" />
    </linearGradient>
  </defs>
  <rect x="46" y="112" width="150" height="68" rx="18" fill="url(#body)" />
  <rect x="196" y="82" width="90" height="98" rx="16" fill="url(#cab)" />
  <rect x="212" y="98" width="58" height="30" rx="8" fill="#e5f3ff" />
  <rect x="64" y="132" width="72" height="10" rx="5" fill="#ecfeff" opacity="0.8" />
  <rect x="64" y="150" width="92" height="10" rx="5" fill="#ecfeff" opacity="0.8" />
  <circle cx="110" cy="192" r="20" fill="#0f172a" />
  <circle cx="110" cy="192" r="9" fill="#cbd5e1" />
  <circle cx="240" cy="192" r="20" fill="#0f172a" />
  <circle cx="240" cy="192" r="9" fill="#cbd5e1" />
  <path d="M46 182h240" stroke="#d1fae5" stroke-width="8" stroke-linecap="round" />
  <path d="M80 90h90" stroke="#34d399" stroke-width="8" stroke-linecap="round" opacity="0.7" />
  <circle cx="156" cy="68" r="12" fill="#befae1" opacity="0.7" />
  <circle cx="260" cy="58" r="14" fill="#bbf7d0" opacity="0.6" />
  <path d="M230 182c3-18 16-28 36-28" stroke="#0f172a" stroke-width="6" stroke-linecap="round" opacity="0.2" />
</svg>
